<svg xmlns="http://www.w3.org/2000/svg" version="1.1" xmlns:xlink="http://www.w3.org/1999/xlink" xmlns:svgjs="http://svgjs.com/svgjs" width="256" height="256" x="0" y="0" viewBox="0 0 24 24" style="enable-background:new 0 0 512 512" xml:space="preserve"><g><path d="M13,11h8c1.654,0,3-1.346,3-3v-3c0-1.654-1.346-3-3-3h-2.586l-1.414-1.414c-.378-.378-.88-.586-1.414-.586h-2.586c-1.654,0-3,1.346-3,3v2H2V1c0-.553-.448-1-1-1S0,.447,0,1V15c0,2.757,2.243,5,5,5h5v1c0,1.654,1.346,3,3,3h8c1.654,0,3-1.346,3-3v-3c0-1.654-1.346-3-3-3h-2.586l-1.414-1.414c-.378-.378-.88-.586-1.414-.586h-2.586c-1.654,0-3,1.346-3,3v2H5c-1.654,0-3-1.346-3-3V7H10v1c0,1.654,1.346,3,3,3Zm-1,5c0-.552,.449-1,1-1h2.586l1.414,1.414c.378,.378,.88,.586,1.414,.586h2.586c.551,0,1,.448,1,1v3c0,.552-.449,1-1,1H13c-.551,0-1-.448-1-1v-5Zm0-13c0-.552,.449-1,1-1h2.586l1.414,1.414c.378,.378,.88,.586,1.414,.586h2.586c.551,0,1,.448,1,1v3c0,.552-.449,1-1,1H13c-.551,0-1-.448-1-1V3Z" fill="#bebebe" data-original="#000000"></path></g></svg>